<svg width="22" height="24" viewBox="0 0 22 24" fill="none" xmlns="http://www.w3.org/2000/svg">
<path d="M16.79 22.75H5.21C2.47 22.75 0.25 20.52 0.25 17.78V10.37C0.25 9.01 1.09 7.3 2.17 6.46L7.56 2.26C9.18 1 11.77 0.940005 13.45 2.12L19.63 6.45C20.82 7.28 21.75 9.06001 21.75 10.51V17.79C21.75 20.52 19.53 22.75 16.79 22.75ZM8.48 3.44L3.09 7.64C2.38 8.2 1.75 9.47001 1.75 10.37V17.78C1.75 19.69 3.3 21.25 5.21 21.25H16.79C18.7 21.25 20.25 19.7 20.25 17.79V10.51C20.25 9.55 19.56 8.22 18.77 7.68L12.59 3.35C11.45 2.55 9.57 2.59 8.48 3.44Z" fill="#292D32"/>
<path d="M11 18.75C10.59 18.75 10.25 18.41 10.25 18V15C10.25 14.59 10.59 14.25 11 14.25C11.41 14.25 11.75 14.59 11.75 15V18C11.75 18.41 11.41 18.75 11 18.75Z" fill="#292D32"/>
</svg>
