<svg width="11" height="10" viewBox="0 0 11 10" fill="none" xmlns="http://www.w3.org/2000/svg">
<path d="M4.22523 0.71103C4.53326 -0.23701 5.87449 -0.237011 6.18252 0.711029L6.70555 2.32075C6.84331 2.74473 7.23841 3.03178 7.6842 3.03178H9.37676C10.3736 3.03178 10.7881 4.30736 9.9816 4.89328L8.61229 5.88814C8.25164 6.15017 8.10072 6.61464 8.23848 7.03861L8.76151 8.64833C9.06955 9.59637 7.98448 10.3847 7.17803 9.79881L5.80871 8.80394C5.44806 8.54191 4.95969 8.54191 4.59904 8.80394L3.22973 9.79881C2.42328 10.3847 1.3382 9.59638 1.64624 8.64834L2.16927 7.03861C2.30703 6.61464 2.15612 6.15017 1.79546 5.88814L0.42615 4.89328C-0.380301 4.30736 0.034159 3.03178 1.03099 3.03178H2.72355C3.16934 3.03178 3.56444 2.74473 3.7022 2.32075L4.22523 0.71103Z" fill="#FFA500"/>
</svg>
