<svg width="11" height="10" viewBox="0 0 11 10" fill="none" xmlns="http://www.w3.org/2000/svg">
<path d="M4.22522 0.71103C4.53326 -0.23701 5.87448 -0.237011 6.18252 0.711029L6.70555 2.32075C6.84331 2.74473 7.2384 3.03178 7.6842 3.03178H9.37676C10.3736 3.03178 10.788 4.30736 9.9816 4.89328L8.61229 5.88814C8.25163 6.15017 8.10072 6.61464 8.23848 7.03861L8.76151 8.64833C9.06954 9.59637 7.98447 10.3847 7.17802 9.79881L5.80871 8.80394C5.44805 8.54191 4.95969 8.54191 4.59903 8.80394L3.22972 9.79881C2.42327 10.3847 1.3382 9.59638 1.64624 8.64834L2.16927 7.03861C2.30702 6.61464 2.15611 6.15017 1.79546 5.88814L0.426146 4.89328C-0.380305 4.30736 0.0341551 3.03178 1.03098 3.03178H2.72354C3.16934 3.03178 3.56443 2.74473 3.70219 2.32075L4.22522 0.71103Z" fill="#FFA500"/>
</svg>
