<svg width="24" height="24" viewBox="0 0 24 24" fill="none" xmlns="http://www.w3.org/2000/svg">
<path opacity="0.4" d="M17.53 7.77C17.46 7.76 17.39 7.76 17.32 7.77C15.77 7.72 14.54 6.45 14.54 4.89C14.54 3.3 15.83 2 17.43 2C19.02 2 20.32 3.29 20.32 4.89C20.31 6.45 19.08 7.72 17.53 7.77Z" fill="white"/>
<path opacity="0.4" d="M20.79 14.7C19.67 15.45 18.1 15.73 16.65 15.54C17.03 14.72 17.23 13.81 17.24 12.85C17.24 11.85 17.02 10.9 16.6 10.07C18.08 9.87001 19.65 10.15 20.78 10.9C22.36 11.94 22.36 13.65 20.79 14.7Z" fill="white"/>
<path opacity="0.4" d="M6.43999 7.77C6.50999 7.76 6.57999 7.76 6.64999 7.77C8.19999 7.72 9.42999 6.45 9.42999 4.89C9.42999 3.3 8.13999 2 6.53999 2C4.94999 2 3.64999 3.29 3.64999 4.89C3.65999 6.45 4.88999 7.72 6.43999 7.77Z" fill="white"/>
<path opacity="0.4" d="M6.54999 12.85C6.54999 13.82 6.75999 14.74 7.13999 15.57C5.72999 15.72 4.26 15.42 3.18 14.71C1.6 13.66 1.6 11.95 3.18 10.9C4.25 10.18 5.75999 9.88998 7.18 10.05C6.77 10.89 6.54999 11.84 6.54999 12.85Z" fill="white"/>
<path d="M12.12 15.87C12.04 15.86 11.95 15.86 11.86 15.87C10.02 15.81 8.55 14.3 8.55 12.44C8.55 10.54 10.08 9 11.99 9C13.89 9 15.43 10.54 15.43 12.44C15.43 14.3 13.97 15.81 12.12 15.87Z" fill="white"/>
<path d="M8.87 17.94C7.36 18.95 7.36 20.61 8.87 21.61C10.59 22.76 13.41 22.76 15.13 21.61C16.64 20.6 16.64 18.94 15.13 17.94C13.42 16.79 10.6 16.79 8.87 17.94Z" fill="white"/>
</svg>
