<svg width="11" height="10" viewBox="0 0 11 10" fill="none" xmlns="http://www.w3.org/2000/svg">
<path d="M4.22523 0.71103C4.53327 -0.23701 5.87449 -0.237011 6.18253 0.711029L6.70556 2.32075C6.84332 2.74473 7.23841 3.03178 7.68421 3.03178H9.37677C10.3736 3.03178 10.7881 4.30736 9.98161 4.89328L8.6123 5.88815C8.25164 6.15018 8.10073 6.61464 8.23848 7.03862L8.76152 8.64834C9.06955 9.59638 7.98448 10.3847 7.17803 9.79881L5.80872 8.80395C5.44806 8.54191 4.9597 8.54191 4.59904 8.80395L3.22973 9.79881C2.42328 10.3847 1.3382 9.59638 1.64624 8.64834L2.16927 7.03862C2.30703 6.61464 2.15612 6.15018 1.79546 5.88815L0.42615 4.89328C-0.380301 4.30736 0.0341591 3.03178 1.03099 3.03178H2.72355C3.16934 3.03178 3.56444 2.74473 3.7022 2.32075L4.22523 0.71103Z" fill="#FFA500"/>
</svg>
